<?xml version="1.0" encoding="utf-8"?>
<!DOCTYPE svg PUBLIC "-//W3C//DTD SVG 20010904//EN" "http://www.w3.org/TR/2001/REC-SVG-20010904/DTD/svg10.dtd">
<svg version="1.0" xmlns="http://www.w3.org/2000/svg" width="3269px" height="878px" viewBox="0 0 3269 878" preserveAspectRatio="xMidYMid meet">
 <g fill="#ffffff">
  <path d="M0 439 l0 -439 1634.5 0 1634.5 0 0 439 0 439 -1634.5 0 -1634.5 0 0 -439z"/>
 </g>
 <g fill="#da2c1f">
  <path d="M1469 877.4 c-50.8 -2.9 -101.4 -15.8 -140 -35.4 -14 -7.2 -28.6 -17.1 -28.2 -19.1 0.3 -1.1 35 -78.9 35.6 -79.6 0.1 -0.1 4.5 2.7 9.8 6.1 29.1 19.1 67.3 33.2 105.8 39.1 14.8 2.3 45.7 3.1 60.5 1.5 40.1 -4.1 62.8 -20 64.3 -44.9 0.8 -13.8 -3.3 -22.8 -14.5 -31.6 -14.8 -11.6 -28.7 -16.5 -89.8 -31.5 -73.8 -18.1 -100.8 -28.8 -124.9 -49.8 -23.6 -20.6 -34.6 -42.5 -37.7 -75.6 -2.8 -28.5 4 -57.6 19.2 -82.4 7.4 -12 26.1 -30.8 38.9 -39.2 30.5 -19.9 64.8 -30.5 110 -34 51.6 -3.9 110 4.9 154 23.5 9.2 3.8 29.8 14.5 31.1 16.1 0.8 1 -2.4 10 -13.7 37.6 -8.1 20 -15.5 38.2 -16.5 40.4 l-1.7 4.2 -11.9 -6.1 c-30.8 -15.8 -57 -24.2 -88.3 -28.3 -17 -2.2 -51.3 -1.5 -64.5 1.4 -29.1 6.3 -45.9 20.4 -49.6 41.6 -2.9 16.7 4 31.1 19.2 39.9 11.4 6.7 39.2 15.6 74.3 23.8 46 10.8 88.5 23.8 105.7 32.5 31.9 16 54.8 40.8 62.8 68 5.3 18 6.5 47.6 2.7 64.9 -5.8 25.9 -16.8 46 -35.5 64.5 -27.7 27.6 -67.4 44.6 -117.5 50.5 -12.8 1.5 -47.6 2.6 -59.6 1.9z"/>
  <path d="M2994.5 876.9 c-24.7 -1.7 -45.3 -5.8 -68.5 -13.5 -90.1 -29.9 -151.2 -104.8 -161.1 -197.1 -1.8 -16.9 -0.7 -54.6 2 -69.8 5.7 -32.3 17.6 -62.5 34.8 -88.3 47.2 -71.1 130.8 -111.3 224.3 -107.9 71.5 2.7 133 28.7 178 75.3 38.4 39.8 59.5 87.6 64.1 145 3.3 42.6 -4.6 85 -23 122.9 -43.4 89.6 -140.5 141.3 -250.6 133.4z m50 -93.4 c18.9 -3.4 38.6 -11.5 55.2 -22.6 17.2 -11.5 35.6 -33.2 45.3 -53.4 18.8 -38.9 19.8 -91.9 2.4 -132 -18.5 -42.7 -56.2 -72.6 -102.8 -81.2 -14.3 -2.7 -45.8 -2.4 -59.6 0.6 -42.9 9.2 -76.2 34 -95.3 71 -10 19.4 -15 37.4 -16.6 60.1 -3.4 47.7 11 89.3 41.3 119.5 23 22.8 52.7 36.4 87.1 39.9 8.1 0.8 34.3 -0.4 43 -1.9z"/>
  <path d="M103.7 869.3 c-0.4 -0.3 -0.7 -62 -0.7 -137 l0 -136.3 -51.5 0 -51.5 0 0 -76.5 0 -76.5 51.5 0 51.5 0 0.2 -221.3 0.3 -221.2 210.5 -0.3 c213.8 -0.3 230.1 -0.1 256.9 3.4 68.1 8.9 128.3 36.5 173.3 79.3 46.7 44.4 75.9 105.5 84.4 176.6 2.3 19.3 2.3 54.8 0 71.5 -10.7 79.1 -54 146.5 -123.2 192 -20.8 13.6 -49.1 27.4 -70.1 34.1 -4 1.3 -7.3 2.5 -7.3 2.8 0 0.4 48.6 69.9 108 154.6 59.4 84.7 108 154.3 108 154.8 0 0.4 -45.5 0.6 -101.2 0.5 l-101.2 -0.3 -90.5 -136.7 -90.4 -136.8 -97.9 0 -97.8 0 0 137 0 137 -80.3 0 c-44.2 0 -80.7 -0.3 -81 -0.7z m436.3 -428.6 c35.8 -5.9 60.8 -16.6 83.2 -35.4 21.6 -18.2 36.7 -44.7 42.9 -75.3 2.6 -12.5 3.6 -38.5 2 -51.5 -7.7 -61 -45.6 -103.1 -106.7 -118.6 -25.7 -6.5 -19.8 -6.2 -164.6 -6.6 l-131.8 -0.4 0 145.1 0 145.1 132.3 -0.4 c119.6 -0.3 133.2 -0.5 142.7 -2z"/>
  <path d="M895 639 l0 -231 174.5 0 174.5 0 -0.2 43.3 -0.3 43.2 -120.7 0.3 -120.8 0.2 0 49.5 0 49.5 106.5 0 106.5 0 0 42 0 42 -106.5 0 -106.5 0 0 52.5 0 52.5 125 0 125 0 0 43.5 0 43.5 -178.5 0 -178.5 0 0 -231z"/>
  <path d="M1696 869.3 c0 -0.3 46.2 -104.3 102.7 -231 l102.6 -230.3 53.1 0.2 53 0.3 102.8 229.9 c56.5 126.4 102.8 230.3 102.8 230.8 0 0.4 -25.3 0.7 -56.2 0.6 l-56.1 -0.3 -20.3 -49 -20.2 -49 -106.9 -0.2 -106.8 -0.3 -20.4 49.5 -20.4 49.5 -54.9 0 c-30.1 0 -54.8 -0.3 -54.8 -0.7z m329.7 -181 c-0.2 -0.5 -16.3 -39.3 -35.7 -86.3 -19.5 -47 -35.6 -85.9 -36 -86.3 -0.4 -0.4 -11.2 24.6 -24 55.5 -12.8 31 -29 70.1 -36 87.1 l-12.8 30.7 72.5 0 c39.8 0 72.2 -0.3 72 -0.7z"/>
  <path d="M2261 639 l0 -231 44.3 0 44.2 0 114 139.3 114 139.3 0.3 -139.3 0.2 -139.3 53 0 53 0 0 231 0 231 -43.9 0 -43.9 0 -114.4 -139.2 -114.3 -139.3 -0.3 139.3 -0.2 139.2 -53 0 -53 0 0 -231z"/>
 </g>
 <g fill="#1d1d1b">
  <path d="M1691.6 307.4 c-12.4 -3 -23.9 -10.6 -29.8 -19.6 -6.7 -10.1 -8.2 -15.7 -8.2 -30.3 0 -14.7 1.4 -21.7 6.8 -33 8.9 -18.8 24.6 -31.8 45.1 -37.6 10.4 -3 31.6 -3.3 41.3 -0.6 14.9 4 26.3 12.6 32.5 24.4 4.3 8.3 5.7 14.8 5.7 25.9 0 22.1 -9.5 43.1 -25.5 56.4 -6.8 5.6 -21.5 12.7 -30 14.5 -8.9 1.9 -30 1.8 -37.9 -0.1z m32.7 -14.9 c23.2 -4.9 39.9 -23.8 42.5 -48.2 2.2 -20.1 -5.8 -35.3 -21.6 -41.4 -8 -3 -24.2 -3.8 -33.2 -1.4 -19.6 5.1 -34.3 20.1 -39.5 40.5 -2.5 9.8 -1.8 23.8 1.7 31.2 7.6 16.3 27.7 24.1 50.1 19.3z"/>
  <path d="M2441.5 308 c-17.8 -3.6 -32.4 -15.2 -38.7 -30.8 -2 -5.1 -2.3 -7.4 -2.2 -20.7 0 -13.8 0.2 -15.7 2.7 -23 6.7 -19.2 18.6 -32.9 36.4 -41.9 18.1 -9.1 46.5 -9.9 63.8 -1.7 6.1 2.8 16.9 11.6 16.3 13.1 -0.2 0.4 -3 3 -6.2 5.8 l-6 5 -4.3 -3.8 c-8.1 -7.1 -16.6 -9.9 -29.8 -10 -26.4 0 -47.3 15.9 -54.1 41.1 -2.5 9.4 -2.3 22.9 0.5 30 5.5 14.4 20.5 22.9 40.1 22.9 11.1 0 25 -4.9 32.6 -11.4 l4.1 -3.5 5.1 5.9 5.1 5.8 -4.3 4 c-5.7 5.2 -14.8 9.8 -24.4 12.3 -8 2 -28.5 2.5 -36.7 0.9z"/>
  <path d="M2858.6 307.4 c-19.8 -4.8 -34 -19.2 -37.7 -38.2 -1.4 -7.5 -0.7 -24.1 1.5 -32 3.7 -13.5 13.5 -28.9 23.3 -36.7 7 -5.6 19.7 -11.9 27.8 -14 9.3 -2.4 25.6 -2.9 35.3 -1.1 17.3 3.1 31 12.5 37.6 25.7 4.7 9.5 6 16.2 5.3 29.4 -0.9 19.9 -7 33.9 -20.7 47.6 -7.1 7.2 -10.1 9.4 -18 13.3 -5.2 2.5 -12.6 5.3 -16.5 6.1 -8.9 1.9 -30 1.8 -37.9 -0.1z m39.2 -16.7 c23 -8 37 -29.7 36 -55.7 -0.4 -11.8 -3.4 -18.6 -10.9 -25.4 -6.9 -6.2 -14 -8.7 -26.4 -9.4 -18.1 -0.8 -31 3.9 -42.6 15.7 -10.6 10.9 -15.9 24.1 -16 40.1 -0.2 24.8 16.1 38.8 43.7 37.6 6.2 -0.3 11.3 -1.2 16.2 -2.9z"/>
  <path d="M954.2 306.8 c0.3 -0.7 5.8 -28.2 12.4 -61 l11.9 -59.8 8.8 0 c8.7 0 8.9 0 8.4 2.3 -0.3 1.2 -5.8 28.6 -12.3 61 l-11.7 58.7 -9 0 c-6.7 0 -8.8 -0.3 -8.5 -1.2z"/>
  <path d="M1128.3 305.8 c0.3 -1.3 5.8 -28.7 12.3 -61 l11.7 -58.8 7.6 0 7.6 0.1 26.9 46.4 c14.8 25.6 27 46.4 27.2 46.3 0.1 -0.2 4.4 -21.1 9.5 -46.5 l9.2 -46.3 9 0 c6.7 0 8.8 0.3 8.5 1.3 -0.3 0.6 -5.8 28.1 -12.4 61 l-11.9 59.8 -7.4 -0.3 -7.5 -0.3 -23.8 -41 c-13.1 -22.5 -25.3 -43.5 -27 -46.5 -3 -5.3 -3.2 -5.4 -3.9 -3 -0.5 1.4 -4.7 22.4 -9.5 46.8 l-8.6 44.2 -9 0 c-8.8 0 -9 0 -8.5 -2.2z"/>
  <path d="M1390 307.2 c0 -0.4 5.4 -27.7 12 -60.7 6.6 -33 12 -60.1 12 -60.3 0 -0.1 3.5 -0.2 7.7 0 l7.7 0.3 8.1 14 c4.5 7.7 16.7 28.6 27.1 46.5 l18.8 32.4 9.3 -45.9 c5 -25.3 9.2 -46.3 9.3 -46.7 0 -0.5 4 -0.8 8.9 -0.8 l8.8 0 -12.1 60.8 -12.2 60.7 -7.4 0.2 -7.5 0.3 -26.9 -46.6 c-16.5 -28.5 -27.2 -46 -27.6 -45.2 -0.4 0.7 -4.7 21.7 -9.6 46.6 l-8.8 45.2 -8.8 0 c-4.8 0 -8.8 -0.3 -8.8 -0.8z"/>
  <path d="M1949.5 306.8 c-0.8 -2.4 -28.5 -118.7 -28.5 -119.7 0 -0.7 3.2 -1.1 8.9 -1.1 l8.9 0 1.1 4.8 c10.7 45.9 22.1 93.6 22.5 93.9 0.3 0.3 3.1 -3.6 6.3 -8.5 3.2 -5 17.5 -27.3 31.8 -49.6 l26 -40.5 9.3 -0.1 9.4 0 -2.1 3.3 c-1.1 1.7 -18.6 29.2 -38.8 60.9 l-36.8 57.7 -8.8 0 c-6.1 0.1 -8.9 -0.3 -9.2 -1.1z"/>
  <path d="M2134.7 306.6 c0.4 -0.8 18.3 -28.2 39.8 -61 l39 -59.6 9 0 9 0 15 59.3 c8.2 32.5 15.1 60 15.3 61 0.4 1.6 -0.3 1.8 -8.3 1.5 l-8.8 -0.3 -3.6 -15 -3.6 -15 -32.1 -0.3 c-29.6 -0.2 -32.2 -0.1 -33.6 1.5 -0.8 1 -5.4 8 -10.2 15.6 l-8.8 13.7 -9.4 0 c-7.9 0 -9.4 -0.2 -8.7 -1.4z m98.7 -45.3 c-0.2 -1 -3.3 -13.9 -6.9 -28.8 -3.6 -14.8 -6.5 -27.4 -6.5 -27.9 0 -0.6 -0.3 -0.6 -0.9 0 -1.2 1.1 -37.1 57.3 -37.1 58 0 0.2 11.7 0.4 25.9 0.4 24.2 0 25.9 -0.1 25.5 -1.7z"/>
  <path d="M2645 306.8 c0 -1.2 22.2 -112.9 23.5 -118.5 0.5 -2.2 1 -2.3 9.4 -2.3 l8.8 0 -12.1 60.8 -12.2 60.7 -8.7 0.3 c-6.7 0.2 -8.7 0 -8.7 -1z"/>
  <path d="M3085.7 304.9 c0.3 -1.7 5.8 -29 12.3 -60.7 l11.6 -57.7 7.5 -0.3 7.4 -0.3 27 46.5 c18.3 31.5 27.2 45.9 27.6 44.8 0.3 -0.9 4.6 -21.8 9.5 -46.4 l8.9 -44.8 8.8 0 c8.7 0 8.9 0 8.4 2.3 -0.3 1.2 -5.8 28.7 -12.3 61 l-11.7 58.8 -7.4 -0.3 -7.5 -0.3 -26.3 -45.4 c-14.5 -25 -26.8 -45.8 -27.3 -46.3 -0.5 -0.5 -4.2 16.1 -9.1 40.9 -4.5 23 -8.7 43.9 -9.2 46.6 l-1.1 4.7 -8.9 0 -8.8 0 0.6 -3.1z"/>
  <path d="M2891.1 171.7 c2.5 -2.3 8.4 -7.5 13.1 -11.5 l8.6 -7.3 10.7 0.3 10.7 0.3 -15.7 11.3 -15.8 11.2 -8.1 0 -8.1 -0.1 4.6 -4.2z"/>
 </g>
 <g fill="#f0ab92">
  <path d="M1481.3 877.3 c3.7 -0.2 9.7 -0.2 13.5 0 3.7 0.2 0.6 0.3 -6.8 0.3 -7.4 0 -10.5 -0.1 -6.7 -0.3z"/>
  <path d="M3010.8 877.3 c3.4 -0.2 8.8 -0.2 12 0 3.1 0.2 0.3 0.3 -6.3 0.3 -6.6 0 -9.2 -0.1 -5.7 -0.3z"/>
  <path d="M1458.8 876.3 c1.2 -0.2 3.2 -0.2 4.5 0 1.2 0.2 0.2 0.4 -2.3 0.4 -2.5 0 -3.5 -0.2 -2.2 -0.4z"/>
  <path d="M1513.8 876.3 c1.2 -0.2 3 -0.2 4 0 0.9 0.3 -0.1 0.5 -2.3 0.4 -2.2 0 -3 -0.2 -1.7 -0.4z"/>
  <path d="M2990.3 876.3 c0.9 -0.2 2.5 -0.2 3.5 0 0.9 0.3 0.1 0.5 -1.8 0.5 -1.9 0 -2.7 -0.2 -1.7 -0.5z"/>
  <path d="M3038.8 876.3 c1.2 -0.2 3 -0.2 4 0 0.9 0.3 -0.1 0.5 -2.3 0.4 -2.2 0 -3 -0.2 -1.7 -0.4z"/>
  <path d="M103.7 869.3 c-0.4 -0.3 -0.7 -62 -0.7 -137 l0 -136.3 -51.7 -0.3 -51.8 -0.2 52.3 -0.3 52.2 -0.2 0 137 0 137 80 0 80 0 0.2 -136.7 0.3 -136.8 97.9 -0.3 c53.9 -0.1 98.3 0.1 98.7 0.5 0.5 0.5 -43.5 0.7 -97.6 0.5 l-98.5 -0.2 0 137 0 137 -80.3 0 c-44.2 0 -80.7 -0.3 -81 -0.7z"/>
  <path d="M677.5 869.3 c94.5 -0.7 166.5 -0.7 166.5 0 0 0.4 -45.6 0.6 -101.2 0.5 -55.7 -0.2 -85.1 -0.4 -65.3 -0.5z"/>
  <path d="M984.3 869.3 c49.4 -0.2 130 -0.2 179 0 49.1 0.1 8.7 0.2 -89.8 0.2 -98.4 0 -138.6 -0.1 -89.2 -0.2z"/>
  <path d="M1696 869.3 c0 -0.7 40.8 -0.7 91 0 10.7 0.1 -5.4 0.3 -35.7 0.5 -30.4 0.1 -55.3 -0.1 -55.3 -0.5z"/>
  <path d="M2100.7 869.3 c-0.5 -0.7 41.3 -0.7 92.8 0 11 0.1 -5.3 0.3 -36.2 0.5 -30.9 0.1 -56.4 -0.1 -56.6 -0.5z"/>
  <path d="M2313.2 869.3 l52.8 -0.3 0.2 -139.6 0.3 -139.6 2 2.3 c1.5 1.8 1.5 2 0.3 1 -1.7 -1.3 -1.8 5.4 -1.8 137.8 l0 139.1 -53.2 -0.2 -53.3 -0.3 52.7 -0.2z"/>
  <path d="M2617.8 869.3 c12.2 -0.2 32.2 -0.2 44.5 0 12.2 0.1 2.2 0.2 -22.3 0.2 -24.5 0 -34.5 -0.1 -22.2 -0.2z"/>
  <path d="M2838.4 812.8 l-2.9 -3.3 3.3 2.9 c1.7 1.7 3.2 3.1 3.2 3.3 0 0.8 -0.8 0.1 -3.6 -2.9z"/>
  <path d="M3200.5 805 c4.9 -4.9 9.2 -9 9.5 -9 0.2 0 -3.6 4.1 -8.5 9 -4.9 5 -9.2 9 -9.5 9 -0.2 0 3.6 -4 8.5 -9z"/>
  <path d="M2822.4 796.8 l-2.9 -3.3 3.3 2.9 c1.7 1.7 3.2 3.1 3.2 3.3 0 0.8 -0.8 0.1 -3.6 -2.9z"/>
  <path d="M1484.3 791.3 c2.6 -0.2 6.8 -0.2 9.5 0 2.6 0.2 0.4 0.3 -4.8 0.3 -5.2 0 -7.4 -0.1 -4.7 -0.3z"/>
  <path d="M1466.3 790.3 c0.9 -0.2 2.5 -0.2 3.5 0 0.9 0.3 0.1 0.5 -1.8 0.5 -1.9 0 -2.7 -0.2 -1.7 -0.5z"/>
  <path d="M3000.3 785.3 c0.9 -0.2 2.5 -0.2 3.5 0 0.9 0.3 0.1 0.5 -1.8 0.5 -1.9 0 -2.7 -0.2 -1.7 -0.5z"/>
  <path d="M1001 730.5 l0 -53.5 107.3 0.2 107.2 0.3 -106.7 0.2 -106.8 0.3 0 52.5 0 52.5 125.3 0.3 125.2 0.2 -125.7 0.3 -125.8 0.2 0 -53.5z"/>
  <path d="M1563 772.7 c0 -0.2 1.5 -1.6 3.3 -3.3 l3.2 -2.9 -2.9 3.3 c-2.8 3 -3.6 3.7 -3.6 2.9z"/>
  <path d="M3118 745.5 c3.5 -3.6 6.7 -6.5 6.9 -6.5 0.3 0 -2.4 2.9 -5.9 6.5 -3.5 3.6 -6.7 6.5 -6.9 6.5 -0.3 0 2.4 -2.9 5.9 -6.5z"/>
  <path d="M2913.4 745.8 l-2.9 -3.3 3.3 2.9 c1.7 1.7 3.2 3.1 3.2 3.3 0 0.8 -0.8 0.1 -3.6 -2.9z"/>
  <path d="M1683.3 744.5 c0 -2.2 0.2 -3 0.4 -1.7 0.2 1.2 0.2 3 0 4 -0.3 0.9 -0.5 -0.1 -0.4 -2.3z"/>
  <path d="M1577.3 742.5 c0 -2.7 0.2 -3.8 0.4 -2.2 0.2 1.5 0.2 3.7 0 5 -0.2 1.2 -0.4 0 -0.4 -2.8z"/>
  <path d="M1683.3 723.5 c0 -2.2 0.2 -3 0.4 -1.7 0.2 1.2 0.2 3 0 4 -0.3 0.9 -0.5 -0.1 -0.4 -2.3z"/>
  <path d="M1917.3 689.3 c20.3 -0.2 53.1 -0.2 73 0 19.9 0.1 3.4 0.2 -36.8 0.2 -40.1 0 -56.4 -0.1 -36.2 -0.2z"/>
  <path d="M3267.2 662 c0 -1.9 0.2 -2.7 0.5 -1.7 0.2 0.9 0.2 2.5 0 3.5 -0.3 0.9 -0.5 0.1 -0.5 -1.8z"/>
  <path d="M2764.3 658.5 c0 -2.2 0.2 -3 0.4 -1.7 0.2 1.2 0.2 3 0 4 -0.3 0.9 -0.5 -0.1 -0.4 -2.3z"/>
  <path d="M1653 654.3 l-5.5 -5.8 5.8 5.5 c3.1 3 5.7 5.6 5.7 5.7 0 0.8 -1 -0.1 -6 -5.4z"/>
  <path d="M3159.3 653.5 c0 -2.2 0.2 -3 0.4 -1.7 0.2 1.2 0.2 3 0 4 -0.3 0.9 -0.5 -0.1 -0.4 -2.3z"/>
  <path d="M2872.3 648 c0 -3 0.2 -4.3 0.4 -2.7 0.2 1.5 0.2 3.9 0 5.5 -0.2 1.5 -0.4 0.2 -0.4 -2.8z"/>
  <path d="M3268.4 639 c0 -6.9 0.1 -9.7 0.3 -6.2 0.2 3.4 0.2 9 0 12.5 -0.2 3.4 -0.3 0.6 -0.3 -6.3z"/>
  <path d="M2872.3 629.5 c0 -3.3 0.2 -4.5 0.4 -2.7 0.2 1.8 0.2 4.5 0 6 -0.2 1.5 -0.4 0 -0.4 -3.3z"/>
  <path d="M1340.4 625.8 l-2.9 -3.3 3.3 2.9 c3 2.8 3.7 3.6 2.9 3.6 -0.2 0 -1.6 -1.5 -3.3 -3.2z"/>
  <path d="M3159.3 624.5 c0 -2.2 0.2 -3 0.4 -1.7 0.2 1.2 0.2 3 0 4 -0.3 0.9 -0.5 -0.1 -0.4 -2.3z"/>
  <path d="M2764.3 619.5 c0 -2.2 0.2 -3 0.4 -1.7 0.2 1.2 0.2 3 0 4 -0.3 0.9 -0.5 -0.1 -0.4 -2.3z"/>
  <path d="M3267.2 616 c0 -1.9 0.2 -2.7 0.5 -1.7 0.2 0.9 0.2 2.5 0 3.5 -0.3 0.9 -0.5 0.1 -0.5 -1.8z"/>
  <path d="M1001.2 544.3 l-0.2 -50.3 121 0 121 0 0.3 -42.7 0.2 -42.8 0 43 0 43 -120.7 0.3 -120.8 0.2 -0.3 49.8 -0.2 49.7 -0.3 -50.2z"/>
  <path d="M1425.4 563.8 l-2.9 -3.3 3.3 2.9 c3 2.8 3.7 3.6 2.9 3.6 -0.2 0 -1.6 -1.5 -3.3 -3.2z"/>
  <path d="M1309.4 544.5 c0 -4.9 0.1 -7.1 0.3 -4.8 0.2 2.3 0.2 6.4 0 9 -0.2 2.6 -0.3 0.8 -0.3 -4.2z"/>
  <path d="M2913 532.5 c3 -3 5.7 -5.5 5.9 -5.5 0.3 0 -1.9 2.5 -4.9 5.5 -3 3 -5.7 5.5 -5.9 5.5 -0.3 0 1.9 -2.5 4.9 -5.5z"/>
  <path d="M752 484.5 c4.7 -4.7 8.7 -8.5 9 -8.5 0.2 0 -3.3 3.8 -8 8.5 -4.7 4.7 -8.7 8.5 -9 8.5 -0.2 0 3.3 -3.8 8 -8.5z"/>
  <path d="M3013.8 491.3 c1.8 -0.2 4.5 -0.2 6 0 1.5 0.2 0 0.4 -3.3 0.4 -3.3 0 -4.5 -0.2 -2.7 -0.4z"/>
  <path d="M1496.3 486.3 c3.7 -0.2 9.7 -0.2 13.5 0 3.7 0.2 0.6 0.3 -6.8 0.3 -7.4 0 -10.5 -0.1 -6.7 -0.3z"/>
  <path d="M3208.4 480.8 l-2.9 -3.3 3.3 2.9 c3 2.8 3.7 3.6 2.9 3.6 -0.2 0 -1.6 -1.5 -3.3 -3.2z"/>
  <path d="M103.5 221.5 l0 -221 216 0 216 0 -215.7 0.2 -215.8 0.3 -0.3 220.8 -0.2 220.7 0 -221z"/>
  <path d="M264.5 298 c0 -80 0.1 -112.8 0.2 -72.7 0.2 40 0.2 105.4 0 145.5 -0.1 40 -0.2 7.2 -0.2 -72.8z"/>
  <path d="M519.8 442.3 c1.2 -0.2 3.2 -0.2 4.5 0 1.2 0.2 0.2 0.4 -2.3 0.4 -2.5 0 -3.5 -0.2 -2.2 -0.4z"/>
  <path d="M1472.3 401.3 c0.9 -0.2 2.5 -0.2 3.5 0 0.9 0.3 0.1 0.5 -1.8 0.5 -1.9 0 -2.7 -0.2 -1.7 -0.5z"/>
  <path d="M1531.3 401.3 c0.9 -0.2 2.5 -0.2 3.5 0 0.9 0.3 0.1 0.5 -1.8 0.5 -1.9 0 -2.7 -0.2 -1.7 -0.5z"/>
  <path d="M2987.3 401.3 c0.9 -0.2 2.5 -0.2 3.5 0 0.9 0.3 0.1 0.5 -1.8 0.5 -1.9 0 -2.7 -0.2 -1.7 -0.5z"/>
  <path d="M3041.3 401.3 c0.9 -0.2 2.5 -0.2 3.5 0 0.9 0.3 0.1 0.5 -1.8 0.5 -1.9 0 -2.7 -0.2 -1.7 -0.5z"/>
  <path d="M1494.2 400.3 c4.8 -0.2 12.9 -0.2 18 0 5.1 0.1 1.2 0.3 -8.7 0.3 -9.9 0 -14.1 -0.2 -9.3 -0.3z"/>
  <path d="M3007.8 400.3 c4.5 -0.2 11.9 -0.2 16.5 0 4.5 0.1 0.8 0.3 -8.3 0.3 -9.1 0 -12.8 -0.2 -8.2 -0.3z"/>
  <path d="M829.2 320 c0 -1.9 0.2 -2.7 0.5 -1.7 0.2 0.9 0.2 2.5 0 3.5 -0.3 0.9 -0.5 0.1 -0.5 -1.8z"/>
  <path d="M669.4 298 c0 -5.2 0.1 -7.4 0.3 -4.7 0.2 2.6 0.2 6.8 0 9.5 -0.2 2.6 -0.3 0.4 -0.3 -4.8z"/>
  <path d="M830.4 297 c0 -5.8 0.1 -8.1 0.3 -5.2 0.2 2.8 0.2 7.6 0 10.5 -0.2 2.8 -0.3 0.5 -0.3 -5.3z"/>
  <path d="M829.3 272.5 c0 -2.2 0.2 -3 0.4 -1.7 0.2 1.2 0.2 3 0 4 -0.3 0.9 -0.5 -0.1 -0.4 -2.3z"/>
  <path d="M1671 207.7 c0 -0.2 1.5 -1.6 3.3 -3.3 l3.2 -2.9 -2.9 3.3 c-2.8 3 -3.6 3.7 -3.6 2.9z"/>
  <path d="M518.3 153.3 c1.5 -0.2 3.7 -0.2 5 0 1.2 0.2 0 0.4 -2.8 0.4 -2.7 0 -3.8 -0.2 -2.2 -0.4z"/>
  <path d="M747.5 86.8 l-10 -10.3 10.3 10 c5.6 5.5 10.2 10.1 10.2 10.2 0 0.8 -1.2 -0.4 -10.5 -9.9z"/>
  <path d="M546.3 1.3 c0.9 -0.2 2.5 -0.2 3.5 0 0.9 0.3 0.1 0.5 -1.8 0.5 -1.9 0 -2.7 -0.2 -1.7 -0.5z"/>
 </g>
</svg>