<?xml version="1.0" encoding="utf-8"?>
<!DOCTYPE svg PUBLIC "-//W3C//DTD SVG 20010904//EN" "http://www.w3.org/TR/2001/REC-SVG-20010904/DTD/svg10.dtd">
<svg version="1.0" xmlns="http://www.w3.org/2000/svg" width="785px" height="212px" viewBox="0 0 785 212" preserveAspectRatio="xMidYMid meet">
 <g fill="#da2a1e">
  <path d="M343.8 210 c-10.7 -1.7 -26.7 -7.5 -30.2 -11 -0.7 -0.7 5 -16 7 -18.8 0.1 -0.2 2.2 0.8 4.6 2.1 11.3 6.7 29.8 10.1 41.3 7.7 10.6 -2.2 15.5 -9.9 10.4 -16.4 -3 -3.9 -6.3 -5.2 -22.7 -9.5 -19.2 -5.1 -25 -7.3 -30.2 -11.8 -6.1 -5.2 -9 -12 -8.9 -20.8 0 -15.6 8 -25.7 25 -31.6 8.6 -3 30.8 -3.3 40.9 -0.5 7.7 2.1 18.2 6.6 17.8 7.6 -6.2 15.6 -7.4 18 -8.8 17.6 -0.8 -0.2 -4.3 -1.6 -7.7 -3 -14.2 -6 -30.5 -6.2 -38.5 -0.4 -5.9 4.1 -5.3 14 1.1 17.3 1.7 0.8 10.8 3.6 20.1 6 20.1 5.3 24.8 7.4 31.1 13.5 10.7 10.3 10.1 28.8 -1.3 40.2 -4.3 4.3 -12 8.5 -19.3 10.5 -6.3 1.7 -24.3 2.5 -31.7 1.3z"/>
  <path d="M709.5 209.4 c-10.1 -2.2 -20.4 -7.5 -27.6 -14.2 -7.8 -7.1 -12.1 -13.8 -15.5 -23.8 -2.3 -7.1 -2.6 -8.9 -2.2 -19.4 0.5 -13.1 2.5 -19.9 8.4 -28.8 10.7 -16.1 30 -26.1 50.7 -26.2 29.1 -0.1 52.6 17.4 59.3 44 2.1 8.3 1.4 23 -1.5 31.2 -5.9 17 -18.7 29.3 -36.7 35.4 -9.9 3.3 -24.8 4.1 -34.9 1.8z m21.1 -20.5 c19.3 -3.5 31.1 -21.5 27.4 -42 -2.2 -12 -8.9 -20.7 -19.9 -25.7 -4.4 -2 -7.2 -2.6 -13.6 -2.6 -11.6 -0.1 -17.4 2.2 -25.2 9.9 -5.1 5.2 -6.4 7.2 -8.2 12.9 -7.6 24.7 6.8 46.6 32 48.5 0.8 0 4.2 -0.4 7.5 -1z"/>
  <path d="M25 176 l0 -33 -12.5 0 -12.5 0 0 -18 0 -18 12.5 0 12.5 0 0 -53.1 0 -53 57.3 0.4 c64.6 0.4 62.8 0.2 79.6 8.3 12.8 6.2 22.9 16.2 28.9 28.4 5.9 12 7.6 19.3 7.6 33 0.1 18.3 -4.7 30.8 -16.8 43.7 -8.4 9 -16.4 14.3 -29.3 19.4 -2.1 0.8 -0.8 2.9 23.7 37.9 l25.9 37 -23.8 0 -23.9 0 -21.7 -33 -21.8 -33 -23.8 0 -23.9 0 0 33 0 33 -19 0 -19 0 0 -33z m117.2 -73.3 c8.3 -4.1 12.3 -8.1 16 -16.4 1.8 -3.8 2.3 -6.7 2.3 -14.3 0 -8.4 -0.3 -10.2 -2.8 -15.2 -3.5 -7.1 -10.9 -14 -18.5 -17 -5.5 -2.2 -7 -2.3 -40.9 -2.6 l-35.3 -0.3 0 35.1 0 35.1 35.8 -0.3 35.8 -0.3 7.6 -3.8z"/>
  <path d="M215 154 l0 -55 41.5 0 41.5 0 0 10 0 10 -29 0 -29 0 0 12 0 12 25.5 0 25.5 0 0 10 0 10 -25.5 0 -25.5 0 0 13 0 13 30 0 30 0 0 10 0 10 -42.5 0 -42.5 0 0 -55z"/>
  <path d="M408.4 207.3 c0.4 -1 11.4 -25.8 24.4 -55 l23.7 -53.3 12.5 0 12.5 0 23.7 53.3 c13.1 29.2 24 54 24.4 55 0.6 1.6 -0.4 1.7 -12.3 1.7 l-12.9 0 -4.9 -12 -4.9 -12 -26 0.2 -25.9 0.3 -4.7 11.5 -4.8 11.5 -12.7 0.3 c-11.9 0.2 -12.7 0.1 -12.1 -1.5z m77.6 -42.1 c0 -1.2 -16 -39.6 -16.9 -40.4 -0.6 -0.7 -4.7 8.7 -16.8 38 l-1.3 3.2 17.5 0 c9.6 0 17.5 -0.4 17.5 -0.8z"/>
  <path d="M543 154 l0 -55 10.3 0 10.3 0 27.5 33.5 27.4 33.5 0.3 -33.5 0.2 -33.5 12.5 0 12.5 0 0 55 0 55 -10.4 0 -10.4 0 -27.3 -33.4 -27.4 -33.4 -0.3 33.4 -0.2 33.4 -12.5 0 -12.5 0 0 -55z"/>
 </g>
 <g fill="#ffffff">
  <path d="M402.5 65.1 c-5 -2.3 -6.7 -5.1 -6.7 -10.7 0 -8.8 6 -15.7 14.7 -17 11.2 -1.6 18.3 6.1 15.5 16.7 -1.5 5.3 -6.4 10.4 -11.5 11.8 -5.4 1.5 -7.3 1.4 -12 -0.8z m15.7 -4.8 c2.9 -2.6 4.8 -6.7 4.8 -10.5 0 -13.1 -20.6 -12 -23.5 1.2 -0.8 3.7 0.2 8.5 2.1 10.1 3.7 3.1 12.7 2.7 16.6 -0.8z"/>
  <path d="M582.4 65.6 c-7.4 -3.3 -9.6 -11.9 -5.2 -19.8 3.1 -5.5 7.9 -8.2 14.8 -8.3 6.3 0 12.1 2.8 10.1 4.8 -0.8 0.8 -1.6 0.9 -2.9 0.1 -5 -3.1 -12.5 -2.3 -16.9 1.8 -5 4.7 -5.1 14.6 -0.2 17.6 2.9 1.8 10.5 1.7 13.4 -0.2 2 -1.3 2.5 -1.3 3.5 -0.1 2.7 3.3 -10.9 6.7 -16.6 4.1z"/>
  <path d="M682.5 65.2 c-4.6 -2.2 -6.5 -5.5 -6.5 -11.3 0 -8.8 6.3 -15.5 15.6 -16.5 12.6 -1.4 19.4 10.9 12.1 21.8 -4.6 6.7 -14 9.4 -21.2 6z m15.7 -4.9 c4.7 -4.2 6.2 -11.8 3.3 -16 -3.8 -5.4 -14.1 -5 -18.9 0.7 -5.2 6.2 -4 16.2 2.1 17.6 1.5 0.3 3.3 0.7 3.8 0.8 2 0.5 7.7 -1.3 9.7 -3.1z"/>
  <path d="M228.3 63.8 c0.3 -1.3 1.6 -7.6 2.8 -14 2 -10.1 2.6 -11.8 4.2 -11.8 1.5 0 1.8 0.5 1.4 2.3 -0.3 1.2 -1.6 7.5 -2.8 14 -2 10 -2.6 11.7 -4.2 11.7 -1.5 0 -1.8 -0.5 -1.4 -2.2z"/>
  <path d="M270 65.3 c0 -0.4 1.2 -6.8 2.6 -14 2.2 -10.8 3 -13.3 4.4 -13.3 1.1 0 3.9 3.9 8 11.1 7.2 12.5 6.7 12.6 9.5 -1.8 1.5 -7.7 2.1 -9.3 3.6 -9.3 1.6 0 1.7 0.5 1.2 3.3 -0.4 1.7 -1.6 7.9 -2.8 13.7 -2.8 14 -3.8 14 -11.9 -0.2 -3.3 -5.8 -6.3 -10.4 -6.6 -10.2 -0.3 0.3 -1.4 5.1 -2.5 10.7 -1.6 7.8 -2.5 10.3 -3.8 10.5 -0.9 0.2 -1.7 0 -1.7 -0.5z"/>
  <path d="M333 64.6 c0 -0.7 1.1 -6.8 2.5 -13.6 1.4 -6.8 2.5 -12.4 2.5 -12.6 0 -0.2 0.8 -0.4 1.8 -0.4 1.1 0 3.8 3.7 8.1 11.1 3.5 6 6.5 10.8 6.7 10.6 0.3 -0.2 4.4 -20.3 4.4 -21.4 0 -0.2 0.8 -0.3 1.9 -0.3 1.7 0 1.7 0.6 -0.9 13.5 -1.5 7.5 -3 13.8 -3.3 14.2 -1.5 1.4 -3.8 -1.2 -9.2 -10.6 -3.1 -5.6 -6 -10.3 -6.4 -10.6 -0.4 -0.2 -1.6 4 -2.6 9.3 -1 5.3 -2 10.3 -2.2 11 -0.7 1.6 -3.3 1.5 -3.3 -0.2z"/>
  <path d="M463.7 54.2 c-1.5 -6.4 -3 -12.7 -3.3 -13.9 -0.5 -1.8 -0.2 -2.3 1.3 -2.3 1.7 0 2.3 1.5 4.3 10.3 1.2 5.6 2.6 10.9 3 11.6 0.6 1.1 3 -1.9 8.4 -10.2 4.4 -6.8 8.2 -11.7 9.2 -11.7 2 0 2.3 -0.5 -7.5 14.8 -11.1 17.3 -11.6 17.4 -15.4 1.4z"/>
  <path d="M512.2 65.2 c0.2 -0.5 4.1 -6.8 8.8 -14 6.6 -10.2 9 -13.1 10.7 -13.2 2.4 0 2.2 -0.5 6.3 16 1.2 4.7 2.3 9.3 2.6 10.3 0.4 1.2 0 1.7 -1.4 1.7 -1.5 0 -2.1 -0.9 -2.6 -3.5 l-0.7 -3.5 -8.2 0 -8.2 0 -2.3 3.5 c-1.2 1.9 -2.9 3.5 -3.8 3.5 -0.9 0 -1.4 -0.4 -1.2 -0.8z m22.8 -9.4 c-0.1 -0.2 -0.9 -3.6 -1.9 -7.7 l-1.8 -7.5 -4.6 7.2 c-2.6 4 -4.7 7.5 -4.7 7.7 0 0.3 2.9 0.5 6.5 0.5 3.6 0 6.5 -0.1 6.5 -0.2z"/>
  <path d="M634 65.3 c0 -0.4 1.2 -6.8 2.6 -14 2.3 -11.3 3 -13.3 4.5 -13.3 1.6 0 1.7 0.5 1.2 3.3 -0.4 1.7 -1.6 7.9 -2.8 13.7 -1.6 8 -2.5 10.6 -3.8 10.8 -0.9 0.2 -1.7 0 -1.7 -0.5z"/>
  <path d="M741.6 54.3 c3.3 -16.6 3.2 -16.3 5.2 -16.3 1.1 0 3.5 3.2 6.9 9.3 8.1 14.3 7.8 14.1 9.2 6.6 2.9 -15.1 3.2 -15.9 5 -15.9 1.7 0 1.6 0.9 -0.9 13.5 -1.5 7.5 -3 13.8 -3.3 14.2 -1.5 1.4 -3.8 -1.3 -9.7 -11.4 l-6.4 -10.8 -1.2 5.5 c-0.7 3 -1.7 8.1 -2.4 11.3 -0.9 4.4 -1.6 5.7 -2.9 5.7 -1.7 0 -1.7 -0.7 0.5 -11.7z"/>
  <path d="M694.5 32.5 c1.7 -1.3 3.9 -2.4 4.9 -2.5 1.6 0 1.3 0.5 -1.4 2.5 -4.5 3.3 -7.5 3.3 -3.5 0z"/>
 </g>
</svg>